<svg xmlns="http://www.w3.org/2000/svg" aria-hidden="true" style="position:absolute;width:0;height:0;overflow:hidden"><defs><symbol id="icon-arrow-down" viewBox="0 0 32 32"><path d="M26.667 28H9.334a1.334 1.334 0 0 1 0-2.667h14.115L4.391 6.277a1.335 1.335 0 0 1 0-1.886 1.335 1.335 0 0 1 1.886 0l19.056 19.058V9.334a1.333 1.333 0 1 1 2.667 0v17.333a1.334 1.334 0 0 1-1.334 1.334z"/></symbol><symbol id="icon-close" viewBox="0 0 32 32"><path d="m8.532 25.333-1.867-1.867 7.467-7.467-7.467-7.467 1.867-1.867 7.467 7.467 7.467-7.467 1.867 1.867-7.467 7.467 7.467 7.467-1.867 1.867-7.467-7.467z"/></symbol><symbol id="icon-email" viewBox="0 0 32 32"><path d="M28.415 3.585a2 2 0 0 0-1.958-.51h-.019l-23.993 7.28a1.998 1.998 0 0 0-1.182 2.916 2 2 0 0 0 .87.809l10.615 5.17 5.163 10.609A1.98 1.98 0 0 0 19.716 31a2 2 0 0 0 1.273-.452c.312-.257.539-.604.65-.993l7.275-23.993v-.019a2 2 0 0 0-.5-1.958zm-8.686 25.397-.006.017v-.009l-5.007-10.287 6-6a1 1 0 0 0-1.413-1.414l-6 6L3.02 12.282l23.981-7.281-7.271 23.981z"/></symbol><symbol id="icon-gameplay1" viewBox="0 0 32 32"><path d="m21.555 1.24-9.736.459-2.244 5.814-.33.053-2.723.443-2.807 6.365 2.514 1.938 15.793.045 4.35-2.139-1.107-9.142-.688-.002v.002l-4.617.066-2.713 3.969-.965-.658 3.055-4.471 3.375-.047-1.156-2.695zm4.367 14.5-3.027 1.49c.781 1.063 1.249 2.947.834 4.349-.153.517-.921 1.859-.934 2.481-.018.837.958 1.836 1.795 1.836s1.588-.999 1.605-1.836c.013-.617-.716-1.976-.877-2.481-.535-1.677-.123-3.954.604-5.84zm-21.945.313c.845 2.264.518 5.225 1.387 5.225.895 0 .873-3.112 2.213-3.793l-1.748-.006-.156-.119-1.695-1.307zm5.304 1.437c1.736.456 3.379 4.738 2.555 5.881-.178.246-.885.938-.904 1.619-.019.694.57 1.467 1.461 1.467.832 0 1.522-.661 1.545-1.467.022-.793-.721-1.367-.855-1.619-.502-1.187-.289-4.605 1.305-4.691 1.826-.099 2.496 5.203 1.387 6.74-.295.408-1.509 1.694-1.543 2.91-.035 1.242.89 2.58 2.42 2.58 1.559 0 2.532-1.494 2.563-2.58.03-1.06-1.199-2.492-1.422-2.91-.895-1.68-.454-6.577 1.48-7.902l-9.99-.027zM5.48 23.805a1.411 1.411 0 0 0 0 2.822 1.411 1.411 0 0 0 0-2.822"/></symbol><symbol id="icon-gameplay2" viewBox="0 0 32 32"><path d="M9.598 1.276 6.821 4.424l3.981 18.194-1.172.11L5.767 5.071l-3.48 3.537 4.606 18.123 2.575-2.954.83.825-2.732 3.134 12.566 2.986 3.357-3.095-12.03-3.129.318-1.124 12.499 3.252 6.492-12.206-4.301-7.999L9.599 1.277zm5.12 3.244c5.039.048 10.554 4.96 9.714 10.311-1.759-4.25-5.795-8.31-10.35-7.23-3.938.934-.324 5.025 4.114 6.106 4.901 1.194 10.547 5.204 6.811 9.155-3.448 3.646-9.947.127-9.42-4.233 1.116 2.04 5.111 5.349 7.543 2.715 3.41-3.693-4.858-5.846-7.642-7.055-2.865-1.244-8.681-5.375-5.068-8.319 1.257-1.024 2.755-1.465 4.297-1.45zm1.368 3.853c.446.003.948.053 1.495.153-1.584.711-1.893 1.947-1.595 3.434-3.045-2.236-2.306-3.601.1-3.587m8.793 1.337c2.419 1.079 3.343 4.179.553 6.002.418-2.024.395-4.031-.553-6.002m-9.456 5.695c.314 0 .664.093.993.283.753.435 1.117 1.214.813 1.74s-1.16.6-1.913.166c-.753-.435-1.117-1.214-.813-1.74.171-.296.517-.449.92-.449"/></symbol><symbol id="icon-gameplay3" viewBox="0 0 32 32"><path d="M10.318 1.494 8.016 6.117l.349 3.807 2.453 1.655 3.156-3.156 1.431-5.341zm7.165.736q-.04 0-.08.004a.8.8 0 0 0-.303.093c-.187.103-.359.284-.461.665l-3.057 11.41 1.338.773q.109.063.209.134l3.18-11.869c.199-.742-.155-1.061-.582-1.178a1 1 0 0 0-.243-.032zm3.576 1.138c-.22-.008-.47.091-.741.363L19.119 4.93l-.895 3.34 3.317-3.316c.278-.278.349-.518.345-.732s-.099-.419-.256-.575-.349-.271-.57-.278zm1.646 1.992a2.5 2.5 0 0 1-.339.419l-4.747 4.747-1.28 4.776 4.388 2.96 4.602-5.654.761-6.192-3.385-1.057zm4.519 1.411-.704 5.725 2.721 2.101.101-7.166-2.118-.661zM13.37 10.679l-1.947 1.947a1.2 1.2 0 0 0-.267.388q.1.046.198.103l1.18.681zm12.663 2.916L21.7 18.918l1.495 1.009 5.729-4.099zm-15.803.366-.062.004a.7.7 0 0 0-.153.032.84.84 0 0 0-.474.406c-.219.397-.233.877.365 1.223l3.566 2.058c.665.384 1.065.125 1.288-.258.112-.191.15-.415.099-.622s-.182-.421-.523-.617l-3.565-2.058c-.217-.125-.392-.169-.54-.167zM8.78 16.51l-.062.004a.7.7 0 0 0-.153.032.84.84 0 0 0-.474.406c-.219.397-.233.877.365 1.222l3.566 2.059c.665.384 1.065.124 1.288-.258.112-.191.15-.414.099-.622s-.182-.421-.523-.618l-3.565-2.058c-.217-.125-.392-.169-.54-.167zm-.459 2.935L1.725 30.889h3.709l5.671-9.837z"/></symbol><symbol id="icon-gameplay4" viewBox="0 0 32 32"><path d="M13.117 2.76 1.742 9.414l7.477 3.394 9.271.732 2.623-1.52 1.084.723-2.885 1.672v9.305l3.348-.914-4.039 3.248-6.93-3.727-.135-.096-4.455.41 4.746-1.998 6.297 3.258v-9.219l-9.221-.726-.094-.043-7.568-3.438v13.99l1.488 1.982 5.125 1.311 1.367-1.33.697 1.857 8.205 2.099v-3.262l.608.326.301-.244.26-.209v3.26l11.398-6.646v-6.025l-1.537-.744 1.537-2.422V7.811l-5.641 3.267-.068 2.131-5.5-3.668 5.311.336 4.969-2.879-11.457-2.906-4.025.361.334-1.308-1.516-.387z"/></symbol><symbol id="icon-menu" viewBox="0 0 32 32"><path d="M4 24v-2.667h24V24zm0-6.667v-2.667h24v2.667zm0-6.666V8h24v2.667z"/></symbol></defs></svg>